# xmcd CD database file
#
# Track frame offsets:
#	150
#	21129
#	39602
#	67767
#	87565
#	93409
#	109931
#	125229
#	149394
#	181787
#	207471
#	216421
#	254517
#	287637
#	309077
#
# Disc length: 4184 seconds
#
# Revision: 0
# Processed by: cddbd v1.5.2PL0 Copyright (c) Steve Scherf et al.
# Submitted via: CDex 1.91
#
DISCID=e110560f
DTITLE=Miles Davis  - Jazz Manifesto Disc 2
DYEAR=2010
DGENRE=Jazz
TTITLE0=Prayer (Oh Doctor Jesus)
TTITLE1=Fisherman, Strawberry and Devil Crab
TTITLE2=My Man's Gone Now
TTITLE3=It Ain't Necessarily So
TTITLE4=Here Come De Honey Man
TTITLE5=I Loves You, Porgy
TTITLE6=There's A Boat That's Leaving Soon For New York
TTITLE7=It Never Entered My Mind
TTITLE8=Four
TTITLE9=In Your Own Sweet Way
TTITLE10=The Theme (Take 1)
TTITLE11=Trane's Blues
TTITLE12=Ahmad's Blues
TTITLE13=Half Nelson
TTITLE14=The Theme (Take 2)
EXTD=YEAR: 2010
EXTT0=
EXTT1=
EXTT2=
EXTT3=
EXTT4=
EXTT5=
EXTT6=
EXTT7=
EXTT8=
EXTT9=
EXTT10=
EXTT11=
EXTT12=
EXTT13=
EXTT14=
PLAYORDER=
